<?xml version="1.0" encoding="utf-8"?>
<!-- Generator: Adobe Illustrator 25.0.0, SVG Export Plug-In . SVG Version: 6.00 Build 0)  -->
<svg version="1.1" id="Layer_1" xmlns="http://www.w3.org/2000/svg" xmlns:xlink="http://www.w3.org/1999/xlink" x="0px" y="0px"
	 viewBox="0 0 512 512" style="enable-background:new 0 0 512 512;" xml:space="preserve">
<style type="text/css">
	.st0{fill:none;stroke:#000000;stroke-width:22;stroke-linejoin:round;stroke-miterlimit:10;}
	.st1{fill:none;stroke:#000000;stroke-width:22;stroke-linecap:round;stroke-linejoin:round;stroke-miterlimit:10;}
	.st2{fill:none;stroke:#000000;stroke-width:22;stroke-linecap:square;stroke-linejoin:round;stroke-miterlimit:10;}
</style>
<line class="st0" x1="18.6" y1="511.3" x2="18.6" y2="92.7"/>
<circle class="st1" cx="282.8" cy="55.6" r="32.9"/>
<g>
	<g>
		<path d="M500.1,168.1c-8.3,32.3-35.3,56.1-83.6,56.1c-61.9,0-91.8-40.3-91.8-91.1c0-48.9,30.5-92.8,93.5-92.8
			c50.9,0,76.6,26.6,81.8,56.5h-37.3c-5.2-15.7-17.1-29.8-45.7-29.8c-38.4,0-53.6,31.1-53.6,64.9c0,31.9,13.7,65.5,54.7,65.5
			c29,0,39.4-16.5,44.5-29.3H500.1z"/>
	</g>
</g>
<line class="st2" x1="74.2" y1="301.7" x2="464.9" y2="301.7"/>
<line class="st2" x1="68.8" y1="300.8" x2="197.5" y2="172"/>
<line class="st2" x1="67.7" y1="302" x2="196.1" y2="430.4"/>
</svg>
